<svg xmlns="http://www.w3.org/2000/svg" viewBox="0 0 60 60" width="60" height="60" focusable="false" class="loader__icon-svg--large fill-currentColor h-[60px] min-h-[60px] w-[60px] min-w-[60px] lazy-loaded">
  <g>
    <path opacity="1" d="M30.1,16.1L30.1,16.1c-0.6,0-1-0.5-1-1V1c0-0.6,0.5-1,1-1l0,0c0.6,0,1,0.5,1,1v14.1C31.1,15.7,30.6,16.1,30.1,16.1z"/>
    <path opacity="0.85" d="M23.1,18.1L23.1,18.1c-0.5,0.3-1.1,0.1-1.4-0.4L14.5,5.6c-0.3-0.5-0.2-1.1,0.4-1.4l0,0C15.4,3.9,16,4,16.3,4.6l7.2,12.1C23.8,17.2,23.6,17.8,23.1,18.1z"/>
    <path opacity="0.77" d="M17.9,23.1L17.9,23.1c-0.3,0.5-0.9,0.7-1.4,0.4l-12.2-7c-0.5-0.3-0.7-0.9-0.4-1.4l0,0c0.3-0.5,0.9-0.7,1.4-0.4l12.2,7C18,22,18.2,22.7,17.9,23.1z"/>
    <path opacity="0.69" d="M16.1,30.1L16.1,30.1c0,0.6-0.5,1-1,1L1,31.2c-0.6,0-1-0.5-1-1l0,0c0-0.6,0.5-1,1-1l14.1-0.1C15.7,29.1,16.1,29.5,16.1,30.1z"/>
    <path opacity="0.61" d="M18,36.9L18,36.9c0.3,0.5,0.2,1.1-0.4,1.4L5.5,45.6c-0.5,0.3-1.1,0.2-1.4-0.4l0,0c-0.3-0.5-0.2-1.1,0.4-1.4l12.1-7.3C17.1,36.2,17.7,36.4,18,36.9z"/>
    <path opacity="0.53" d="M23.3,42.1L23.3,42.1c0.5,0.3,0.6,0.9,0.4,1.4l-7.3,12.1c-0.3,0.5-0.9,0.6-1.4,0.4l0,0c-0.5-0.3-0.6-0.9-0.4-1.4l7.3-12.1C22.1,41.9,22.8,41.8,23.3,42.1z"/>
    <path opacity="0.45" d="M30.1,43.9L30.1,43.9c0.6,0,1,0.5,1,1V59c0,0.6-0.5,1-1,1l0,0c-0.6,0-1-0.5-1-1V44.9C29,44.4,29.5,43.9,30.1,43.9z"/>
    <path opacity="0.37" d="M37,41.9L37,41.9c0.5-0.3,1.1-0.2,1.4,0.4l7.2,12.1c0.3,0.5,0.2,1.1-0.4,1.4l0,0c-0.5,0.3-1.1,0.2-1.4-0.4l-7.2-12.1C36.4,42.8,36.6,42.2,37,41.9z"/>
    <path opacity="0.29" d="M42.2,36.8L42.2,36.8c0.3-0.5,0.9-0.7,1.4-0.4l12.2,7c0.5,0.3,0.7,0.9,0.4,1.4l0,0c-0.3,0.5-0.9,0.7-1.4,0.4l-12.2-7C42.1,38,41.9,37.4,42.2,36.8z"/>
    <path opacity="0.21 " d="M44,29.9L44,29.9c0-0.6,0.5-1,1-1h14.1c0.6,0,1,0.5,1,1l0,0c0,0.6-0.5,1-1,1L45,31C44.4,31,44,30.5,44,29.9z"/>
    <path opacity="0.13" d="M42.1,23.1L42.1,23.1c-0.3-0.5-0.2-1.1,0.4-1.4l12.1-7.3c0.5-0.3,1.1-0.2,1.4,0.4l0,0c0.3,0.4,0.1,1.1-0.4,1.3l-12.1,7.3C43.1,23.7,42.4,23.6,42.1,23.1z"/>
    <path opacity="0.05" d="M36.9,17.9L36.9,17.9c-0.5-0.3-0.6-0.9-0.4-1.4l7.3-12.1c0.3-0.5,0.9-0.6,1.4-0.4l0,0c0.5,0.3,0.6,0.9,0.4,1.4l-7.4,12.2C38,18.1,37.3,18.2,36.9,17.9z"/>
    <animateTransform attributeName="transform" attributeType="XML" type="rotate" begin="0s" dur="1s" repeatCount="indefinite" calcMode="discrete" keyTimes="0;.0833;.166;.25;.3333;.4166;.5;.5833;.6666;.75;.8333;.9166;1" values="0,30,30;30,30,30;60,30,30;90,30,30;120,30,30;150,30,30;180,30,30;210,30,30;240,30,30;270,30,30;300,30,30;330,30,30;360,30,30"/>
  </g>
</svg>