<svg aria-hidden="true" style="position: absolute; width: 0; height: 0; overflow: hidden;" version="1.1" xmlns="http://www.w3.org/2000/svg" xmlns:xlink="http://www.w3.org/1999/xlink"><defs><symbol id="icon-add-circle-solid" viewBox="0 0 24 24"><path d="M12 2C6.48 2 2 6.48 2 12s4.48 10 10 10 10-4.48 10-10S17.52 2 12 2zm5 11h-4v4h-2v-4H7v-2h4V7h2v4h4v2z"/></symbol><symbol id="icon-bullet" viewBox="0 0 24 24"><path d="M17 12a5 5 0 11-10.001-.001A5 5 0 0117 12z"/></symbol><symbol id="icon-collapse-minus" viewBox="0 0 24 24"><path d="M5 11v2h14v-2H5z"/></symbol><symbol id="icon-expand-plus" viewBox="0 0 24 24"><path d="M19 13h-6v6h-2v-6H5v-2h6V5h2v6h6v2z"/></symbol><symbol id="icon-lifetime" viewBox="0 0 24 24"><path d="M18.6 6.62c-1.44 0-2.8.56-3.77 1.53L12 10.66 10.48 12h.01L7.8 14.39c-.64.64-1.49.99-2.4.99-1.87 0-3.39-1.51-3.39-3.38S3.53 8.62 5.4 8.62c.91 0 1.76.35 2.44 1.03l1.13 1 1.51-1.34L9.22 8.2A5.37 5.37 0 005.4 6.62C2.42 6.62 0 9.04 0 12s2.42 5.38 5.4 5.38c1.44 0 2.8-.56 3.77-1.53l2.83-2.5.01.01L13.52 12h-.01l2.69-2.39c.64-.64 1.49-.99 2.4-.99 1.87 0 3.39 1.51 3.39 3.38s-1.52 3.38-3.39 3.38c-.9 0-1.76-.35-2.44-1.03l-1.14-1.01-1.51 1.34 1.27 1.12a5.386 5.386 0 003.82 1.57c2.98 0 5.4-2.41 5.4-5.38s-2.42-5.37-5.4-5.37z"/></symbol><symbol id="icon-people" viewBox="0 0 24 24"><path d="M16 10c1.66 0 2.99-1.34 2.99-3S17.66 4 16 4c-1.66 0-3 1.34-3 3s1.34 3 3 3zm-8 0c1.66 0 2.99-1.34 2.99-3S9.66 4 8 4C6.34 4 5 5.34 5 7s1.34 3 3 3zm0 2c-2.33 0-7 1.17-7 3.5V20h14v-4.5c0-2.33-4.67-3.5-7-3.5zm8 0c-.29 0-.62.02-.97.05 1.16.84 1.97 1.97 1.97 3.45V20h6v-4.5c0-2.33-4.67-3.5-7-3.5z"/></symbol><symbol id="icon-play-overlay" viewBox="0 0 24 24"><circle cy="12" cx="12" fill="#1e1e1c" r="10"/><path d="M0 12A12 12 0 1012 0 12 12 0 000 12zm18 .137L8.4 16.8V7.2l9.6 4.937z"/></symbol><symbol id="icon-rating-star" viewBox="0 0 24 24"><path d="M12 17.27L18.18 21l-1.64-7.03L22 9.24l-7.19-.61L12 2 9.19 8.63 2 9.24l5.46 4.73L5.82 21 12 17.27z"/></symbol><symbol id="icon-solid-arrow-right" viewBox="0 0 24 24"><path d="M8.808 5.849l7.92 6.222-7.92 6.222V5.85z"/></symbol><symbol id="icon-tick" viewBox="0 0 24 24"><path d="M9 16.17L4.83 12l-1.42 1.41L9 19 21 7l-1.41-1.41L9 16.17z"/></symbol><symbol id="icon-udemy-select" viewBox="0 0 24 24"><path d="m19.5079 6.3745 2.8637 2.1486-1.0935 3.4766 1.0935 3.4765-2.8637 2.1486-1.0936 3.4766h-3.5397l-2.8638 2.1486-2.86374-2.1486h-3.53976l-1.09355-3.4766-2.86375-2.1486 1.09355-3.4765-1.09355-3.4766 2.86375-2.14793 1.09355-3.47657h3.53976l2.86374-2.1486 2.8638 2.14793h3.5397zm-7.509 4.9113 6.6 3.9358h.0011v-3.9358l-6.6-3.9358-6.6 3.9358v3.9358z"/></symbol><symbol id="icon-wishlisted" viewBox="0 0 24 24"><path d="M12 21.35l-1.45-1.32C5.4 15.36 2 12.28 2 8.5 2 5.42 4.42 3 7.5 3c1.74 0 3.41.81 4.5 2.09C13.09 3.81 14.76 3 16.5 3 19.58 3 22 5.42 22 8.5c0 3.78-3.4 6.86-8.55 11.54L12 21.35z"/></symbol><symbol id="icon-apple" viewBox="0 0 20 20"><path fill-rule="evenodd" clip-rule="evenodd" d="M10.313 4.583c.928 0 2.09-.544 2.77-1.284.627-.672 1.084-1.598 1.084-2.524 0-.127-.013-.254-.04-.358-1.031.034-2.272.602-3.004 1.365C10.55 2.372 10 3.3 10 4.236c0 .139.026.278.04.324.065.012.169.023.274.023zm6.715 2.697c-1.24-1.816-3.127-1.863-3.647-1.863-.816 0-1.536.29-2.14.533-.435.176-.81.327-1.117.327-.34 0-.728-.16-1.16-.337-.545-.223-1.16-.476-1.838-.476C4.836 5.464 2.5 7.4 2.5 11.02c0 2.27.862 4.646 1.924 6.187.92 1.302 1.723 2.377 2.867 2.377.542 0 .942-.174 1.362-.357.467-.204.961-.42 1.707-.42.736 0 1.18.2 1.611.395.405.182.798.358 1.41.358 1.24 0 2.077-1.158 2.856-2.305.885-1.314 1.251-2.58 1.263-2.652-.07-.024-2.455-1.003-2.455-3.774 0-2.235 1.626-3.31 1.937-3.516l.046-.032z"/></symbol><symbol id="icon-facebook" viewBox="0 0 24 24"><path d="m23 12.0672c0-6.11224-4.9249-11.0672-11-11.0672-6.07514 0-11 4.95496-11 11.0672 0 5.524 4.02254 10.1025 9.2813 10.9328v-7.7337h-2.79301v-3.1991h2.79301v-2.43822c0-2.77373 1.6422-4.30584 4.1548-4.30584 1.2035 0 2.4623.21615 2.4623.21615v2.72358h-1.387c-1.3665 0-1.7926.85311-1.7926 1.72833v2.076h3.0507l-.4877 3.1991h-2.5631v7.7337c5.2588-.8303 9.2813-5.4088 9.2813-10.9328"/></symbol><symbol id="icon-google" viewBox="0 0 20 20"><path fill-rule="evenodd" clip-rule="evenodd" d="M19.6 10.227c0-.709-.064-1.39-.182-2.045H10v3.868h5.382a4.6 4.6 0 01-1.996 3.018v2.51h3.232c1.891-1.742 2.982-4.305 2.982-7.35z" fill="#4285F4"/><path fill-rule="evenodd" clip-rule="evenodd" d="M10 20c2.7 0 4.963-.895 6.618-2.423l-3.232-2.509c-.895.6-2.04.955-3.386.955-2.605 0-4.81-1.76-5.596-4.123h-3.34v2.59A9.996 9.996 0 0010 20z" fill="#34A853"/><path fill-rule="evenodd" clip-rule="evenodd" d="M4.405 11.9c-.2-.6-.314-1.24-.314-1.9 0-.66.114-1.3.314-1.9V5.51H1.064A9.996 9.996 0 000 10c0 1.614.386 3.14 1.064 4.49l3.34-2.59z" fill="#FBBC05"/><path fill-rule="evenodd" clip-rule="evenodd" d="M10 3.977c1.468 0 2.786.505 3.823 1.496l2.868-2.868C14.959.99 12.695 0 10 0 6.09 0 2.709 2.24 1.063 5.51L4.404 8.1C5.191 5.736 7.395 3.977 10 3.977z" fill="#EA4335"/></symbol><symbol id="icon-hidden" viewBox="0 0 24 24"><path d="M12 7c2.76 0 5 2.24 5 5 0 .65-.13 1.26-.36 1.83l2.92 2.92c1.51-1.26 2.7-2.89 3.43-4.75-1.73-4.39-6-7.5-11-7.5-1.4 0-2.74.25-3.98.7l2.16 2.16C10.74 7.13 11.35 7 12 7zM2 4.27l2.74 2.74A11.804 11.804 0 001 12c1.73 4.39 6 7.5 11 7.5 1.55 0 3.03-.3 4.38-.84l.42.42L19.73 22 21 20.73 3.27 3 2 4.27zM7.53 9.8l1.55 1.55c-.05.21-.08.43-.08.65 0 1.66 1.34 3 3 3 .22 0 .44-.03.65-.08l1.55 1.55c-.67.33-1.41.53-2.2.53-2.76 0-5-2.24-5-5 0-.79.2-1.53.53-2.2zm4.31-.78l3.15 3.15.02-.16c0-1.66-1.34-3-3-3l-.17.01z"/></symbol><symbol id="icon-visible" viewBox="0 0 24 24"><path d="M12 4.5C7 4.5 2.73 7.61 1 12c1.73 4.39 6 7.5 11 7.5s9.27-3.11 11-7.5c-1.73-4.39-6-7.5-11-7.5zM12 17c-2.76 0-5-2.24-5-5s2.24-5 5-5 5 2.24 5 5-2.24 5-5 5zm0-8c-1.66 0-3 1.34-3 3s1.34 3 3 3 3-1.34 3-3-1.34-3-3-3z"/></symbol></defs></svg>