<svg aria-hidden="true" style="position: absolute; width: 0; height: 0; overflow: hidden;" version="1.1" xmlns="http://www.w3.org/2000/svg" xmlns:xlink="http://www.w3.org/1999/xlink"><defs><symbol id="icon-article" viewBox="0 0 24 24"><path d="M14 2H6c-1.1 0-1.99.9-1.99 2L4 20c0 1.1.89 2 1.99 2H18c1.1 0 2-.9 2-2V8l-6-6zM6 20V4h7v5h5v11H6z"/></symbol><symbol id="icon-cart" viewBox="0 0 24 24"><path d="M15.55 13c.75 0 1.41-.41 1.75-1.03l3.58-6.49A.996.996 0 0020.01 4H5.21l-.94-2H1v2h2l3.6 7.59-1.35 2.44C4.52 15.37 5.48 17 7 17h12v-2H7l1.1-2h7.45zM6.16 6h12.15l-2.76 5H8.53L6.16 6zM7 18c-1.1 0-1.99.9-1.99 2S5.9 22 7 22s2-.9 2-2-.9-2-2-2zm10 0c-1.1 0-1.99.9-1.99 2s.89 2 1.99 2 2-.9 2-2-.9-2-2-2z"/></symbol><symbol id="icon-close" viewBox="0 0 24 24"><path d="M19 6.41L17.59 5 12 10.59 6.41 5 5 6.41 10.59 12 5 17.59 6.41 19 12 13.41 17.59 19 19 17.59 13.41 12 19 6.41z"/></symbol><symbol id="icon-collapse" viewBox="0 0 24 24"><path d="M7.41 15.41L12 10.83l4.59 4.58L18 14l-6-6-6 6 1.41 1.41z"/></symbol><symbol id="icon-delete" viewBox="0 0 24 24"><path d="M6 19c0 1.1.9 2 2 2h8c1.1 0 2-.9 2-2V7H6v12zM19 4h-3.5l-1-1h-5l-1 1H5v2h14V4z"/></symbol><symbol id="icon-empty-course-image" fill="none" viewBox="0 0 32 32" xmlns="http://www.w3.org/2000/svg"><rect fill="#dcdacb" height="32" rx="2" width="32"/><path d="M12.667 10.166v11.667L21.833 16z" fill="#73726c"/></symbol><symbol id="icon-error" viewBox="0 0 24 24"><path d="M13 13h-2V7h2v6zm-1 4.3a1.299 1.299 0 110-2.598 1.299 1.299 0 010 2.598zM15.73 3H8.27L3 8.27v7.46L8.27 21h7.46L21 15.73V8.27L15.73 3z"/></symbol><symbol id="icon-expand" viewBox="0 0 24 24"><path d="M16.59 8.59L12 13.17 7.41 8.59 6 10l6 6 6-6-1.41-1.41z"/></symbol><symbol id="icon-info" viewBox="0 0 24 24"><path d="M12 2C6.48 2 2 6.48 2 12s4.48 10 10 10 10-4.48 10-10S17.52 2 12 2zm1 15h-2v-6h2v6zm0-8h-2V7h2v2z"/></symbol><symbol id="icon-language" viewBox="0 0 24 24"><path d="M11.99 2C6.47 2 2 6.48 2 12s4.47 10 9.99 10C17.52 22 22 17.52 22 12S17.52 2 11.99 2zm6.93 6h-2.95a15.65 15.65 0 00-1.38-3.56A8.03 8.03 0 0118.92 8zM12 4.04c.83 1.2 1.48 2.53 1.91 3.96h-3.82c.43-1.43 1.08-2.76 1.91-3.96zM4.26 14C4.1 13.36 4 12.69 4 12s.1-1.36.26-2h3.38c-.08.66-.14 1.32-.14 2s.06 1.34.14 2H4.26zm.82 2h2.95c.32 1.25.78 2.45 1.38 3.56A7.987 7.987 0 015.08 16zm2.95-8H5.08a7.987 7.987 0 014.33-3.56A15.65 15.65 0 008.03 8zM12 19.96c-.83-1.2-1.48-2.53-1.91-3.96h3.82c-.43 1.43-1.08 2.76-1.91 3.96zM14.34 14H9.66c-.09-.66-.16-1.32-.16-2s.07-1.35.16-2h4.68c.09.65.16 1.32.16 2s-.07 1.34-.16 2zm.25 5.56c.6-1.11 1.06-2.31 1.38-3.56h2.95a8.03 8.03 0 01-4.33 3.56zM16.36 14c.08-.66.14-1.32.14-2s-.06-1.34-.14-2h3.38c.16.64.26 1.31.26 2s-.1 1.36-.26 2h-3.38z"/></symbol><symbol id="icon-loading-spinner" viewBox="0 0 24 24"><path d="M4.979 4.879l-.05.05c-3.903 3.903-3.903 10.239 0 14.142s10.239 3.903 14.142 0c3.903-3.903 3.903-10.239 0-14.142l-.152-.149-2.122 2.122a7.004 7.004 0 01.153 10.049 7.002 7.002 0 01-9.899 0 7.004 7.004 0 010-9.9l.051-.05L4.981 4.88z"/></symbol><symbol id="icon-menu" viewBox="0 0 24 24"><path d="M3 18h18v-2H3v2zm0-5h18v-2H3v2zm0-7v2h18V6H3z"/></symbol><symbol id="icon-next" viewBox="0 0 24 24"><path d="M8.59 7.41L13.17 12l-4.58 4.59L10 18l6-6-6-6-1.41 1.41z"/></symbol><symbol id="icon-person" viewBox="0 0 24 24"><path d="M12 12c2.21 0 4-1.79 4-4s-1.79-4-4-4-4 1.79-4 4 1.79 4 4 4zm0 2c-2.67 0-8 1.34-8 4v2h16v-2c0-2.66-5.33-4-8-4z"/></symbol><symbol id="icon-play" viewBox="0 0 24 24"><path d="M2 12c0 5.525 4.475 10 10 10s10-4.475 10-10S17.525 2 12 2 2 6.475 2 12zm15 .114L9 16V8l8 4.114z"/></symbol><symbol id="icon-previous" viewBox="0 0 24 24"><path d="M15.41 16.59L10.83 12l4.58-4.59L14 6l-6 6 6 6 1.41-1.41z"/></symbol><symbol id="icon-schedule" viewBox="0 0 24 24"><path d="M11 7h1.5v5.25l4.5 2.67-.75 1.23L11 13V7z"/><path fill-rule="evenodd" clip-rule="evenodd" d="M2 12C2 6.48 6.47 2 11.99 2 17.52 2 22 6.48 22 12s-4.48 10-10.01 10C6.47 22 2 17.52 2 12zm2 0c0 4.42 3.58 8 8 8s8-3.58 8-8-3.58-8-8-8-8 3.58-8 8z"/></symbol><symbol id="icon-search" viewBox="0 0 24 24"><path d="M15.5 14h-.79l-.28-.27A6.471 6.471 0 0016 9.5 6.5 6.5 0 109.5 16c1.61 0 3.09-.59 4.23-1.57l.27.28v.79l5 4.99L20.49 19l-4.99-5zm-6 0C7.01 14 5 11.99 5 9.5S7.01 5 9.5 5 14 7.01 14 9.5 11.99 14 9.5 14z"/></symbol><symbol id="icon-success" viewBox="0 0 24 24"><path d="M12 2C6.48 2 2 6.48 2 12s4.48 10 10 10 10-4.48 10-10S17.52 2 12 2zm-2 15l-4.328-4.328 1.41-1.41L10 14.17l6.333-6.333 1.41 1.42L10 17z"/></symbol><symbol id="icon-warning" viewBox="0 0 24 24"><path d="M1 21h22L12 2 1 21zm12-3h-2v-2h2v2zm0-4h-2V9h2v5z"/></symbol></defs></svg>